<svg width="50" height="50" viewBox="0 0 30 30" fill="none" xmlns="http://www.w3.org/2000/svg">
<path d="M15.1408 27.0005L15.1408 26.5005H15.1408L15.1408 27.0005ZM5 21.5582L4.50006 21.5507L4.49772 21.7055L4.58334 21.8346L5 21.5582ZM25.2817 21.5582L25.6984 21.8346L25.784 21.7055L25.7816 21.5507L25.2817 21.5582ZM15.1408 3.50049C17.6703 3.50049 19.7113 5.54142 19.7113 8.07091H20.7113C20.7113 4.98913 18.2226 2.50049 15.1408 2.50049V3.50049ZM19.7113 8.07091C19.7113 10.6004 17.6703 12.6413 15.1408 12.6413V13.6413C18.2226 13.6413 20.7113 11.1527 20.7113 8.07091H19.7113ZM15.1408 12.6413C12.6113 12.6413 10.5704 10.6004 10.5704 8.07091H9.57041C9.57041 11.1527 12.0591 13.6413 15.1408 13.6413V12.6413ZM10.5704 8.07091C10.5704 5.54142 12.6113 3.50049 15.1408 3.50049V2.50049C12.0591 2.50049 9.57041 4.98913 9.57041 8.07091H10.5704ZM15.1408 26.5005C11.2297 26.5005 7.57865 24.5411 5.41666 21.2818L4.58334 21.8346C6.9306 25.3732 10.8945 27.5005 15.1408 27.5005L15.1408 26.5005ZM5.49994 21.5657C5.50991 20.9045 5.84489 20.2788 6.47245 19.6907C7.10211 19.1007 7.99222 18.5831 9.01476 18.1554C11.0619 17.2992 13.519 16.8526 15.1408 16.8526V15.8526C13.3824 15.8526 10.7945 16.3271 8.6289 17.2328C7.5451 17.6862 6.53697 18.2598 5.78865 18.9611C5.0382 19.6643 4.51544 20.5302 4.50006 21.5507L5.49994 21.5657ZM15.1408 16.8526C16.7541 16.8526 19.2113 17.2991 21.2608 18.1555C22.2845 18.5832 23.1762 19.1009 23.8072 19.6911C24.4362 20.2794 24.7718 20.9049 24.7817 21.5657L25.7816 21.5507C25.7662 20.5298 25.242 19.6638 24.4903 18.9607C23.7407 18.2596 22.731 17.686 21.6463 17.2328C19.4789 16.3272 16.891 15.8526 15.1408 15.8526V16.8526ZM24.865 21.2818C22.703 24.5411 19.052 26.5005 15.1408 26.5005L15.1408 27.5005C19.3872 27.5005 23.3511 25.3732 25.6984 21.8346L24.865 21.2818Z" fill="rgb(190, 79, 97)"/>
</svg>
